<svg id="Layer_1" data-name="Layer 1" xmlns="http://www.w3.org/2000/svg" viewBox="0 0 54.13 54.13"><circle cx="27.06" cy="27.06" r="27.06" style="fill:#4f46e5"/><path d="M21.65,56.1a1.42,1.42,0,0,0,2.25,0l8.15-10.73a1.41,1.41,0,0,0-1.12-2.27H14.62a1.42,1.42,0,0,0-1.13,2.27Z" transform="translate(-7.26 -8.65)" style="fill:#fff"/><path d="M35.92,15.36a1.41,1.41,0,0,0-2.26,0L23.65,28a1.41,1.41,0,0,0,0,1.73L33.78,43.1l9.88,13a1.42,1.42,0,0,0,2.25,0l9.25-12.17a1.41,1.41,0,0,0,0-1.67Z" transform="translate(-7.26 -8.65)" style="fill:#fff"/></svg>